<svg viewBox="0 0 87 40" xmlns="http://www.w3.org/2000/svg"><g fill="none" fill-rule="evenodd"><g fill="#78C257"><path d="M55.2849 13.0322h-.1025c-1.3123 0-2.3824 1.0735-2.3824 2.3826v10.373c0 1.3142 1.0701 2.3843 2.3824 2.3843h.1043c1.3124 0 2.3825-1.0735 2.3825-2.3843V15.4146c-.0017-1.3089-1.0735-2.3824-2.3843-2.3824M58.8092 29.7918c0 1.205.9847 2.1862 2.1898 2.1862h2.3396v5.603c0 1.316 1.0736 2.3859 2.3827 2.3859h.1024c1.314 0 2.3859-1.0717 2.3859-2.3859v-5.603h3.2701v5.603c0 1.316 1.0768 2.3859 2.3859 2.3859h.1007c1.314 0 2.3842-1.0717 2.3842-2.3859v-5.603h2.3415c1.2032 0 2.188-.9813 2.188-2.1862v-16.379H58.8091v16.379zM74.9817 8.617c-.5888 0-1.0667-.4745-1.0667-1.065 0-.5904.478-1.0633 1.0667-1.0633.5904 0 1.065.4729 1.065 1.0633 0 .5905-.4746 1.065-1.065 1.065m-10.2726 0c-.5888 0-1.0666-.4745-1.0666-1.065 0-.5904.4778-1.0633 1.0666-1.0633.5923 0 1.0667.4729 1.0667 1.0633 0 .5907-.4778 1.065-1.0667 1.065M75.3417 3.48L77.2005.611c.1195-.181.0665-.4283-.1163-.5461-.1808-.1197-.4283-.07-.546.1159l-1.9269 2.968c-1.4455-.5922-3.06-.925-4.765-.925-1.7068 0-3.3178.3328-4.7668.925L63.156.1809c-.1176-.186-.3668-.2356-.5496-.116-.1825.1177-.2354.3652-.1159.5462L64.3508 3.48c-3.3537 1.6435-5.6151 4.7412-5.6151 8.2945 0 .2185.0138.4334.0325.6468H80.926a7.372 7.372 0 0 0 .0308-.6468c0-3.5533-2.2631-6.651-5.6151-8.2945M84.5067 13.0322h-.099c-1.3124 0-2.386 1.0735-2.386 2.3826v10.373c0 1.3142 1.0751 2.3843 2.386 2.3843h.1007c1.3142 0 2.3824-1.0735 2.3824-2.3843V15.4146c0-1.3089-1.0718-2.3824-2.3841-2.3824"></path></g><g fill="#000"><path d="M1.6647 14.5105c-3.337 5.791-1.2157 14.5789 2.4746 19.9074 1.8421 2.664 3.707 5.0553 6.2613 5.0553.0483 0 .0966-.001.1458-.0029 1.2004-.0477 2.0676-.4172 2.906-.7743.9415-.4013 1.915-.8161 3.4423-.8161 1.4529 0 2.38.4012 3.2766.7895.8837.3822 1.7938.7777 3.1388.7526 2.8773-.0538 4.644-2.634 6.2025-4.9105 1.6264-2.3768 2.4424-4.6845 2.7175-5.5663l.0112-.0352a.3236.3236 0 0 0-.1718-.3968l-.0239-.0101c-.5064-.2071-4.9511-2.1787-4.9979-7.553-.0434-4.366 3.3344-6.6781 4.0116-7.0972l.0317-.0197a.3232.3232 0 0 0 .1417-.2079.322.322 0 0 0-.0498-.2464c-2.3313-3.4118-5.9047-3.926-7.3434-3.988a6.4838 6.4838 0 0 0-.6405-.0312c-1.6898 0-3.3084.6382-4.6089 1.151-.8975.354-1.673.6596-2.2077.6596-.601 0-1.3808-.3095-2.2835-.6677-1.2076-.4792-2.5763-1.0223-4.025-1.0223-.0346 0-.0688.0004-.1021.001-3.369.0497-6.5521 1.977-8.3071 5.0292"></path><path d="M23.8426.0003c-2.04.083-4.4873 1.3388-5.95 3.052-1.2431 1.4402-2.4575 3.8412-2.1376 6.2614a.3235.3235 0 0 0 .2956.28c.1378.0108.2784.0163.4184.0164 1.9947 0 4.1466-1.1037 5.6161-2.8806 1.5467-1.8763 2.329-4.2844 2.0923-6.4412a.3257.3257 0 0 0-.3348-.288"></path></g></g></svg>