<svg viewBox="0 0 65 81" xmlns="http://www.w3.org/2000/svg"><path d="M41.4038 38.0064l-9.108-4.891-9.108 4.891 1.739-10.359-7.368-7.336 10.183-1.512 4.554-9.424 4.553 9.424 10.184 1.512-7.369 7.336 1.74 10.359zm-9.108-7.75l5.817 3.124-1.111-6.616 4.706-4.686-6.504-.965-2.908-6.02-2.909 6.02-6.504.965 4.707 4.686-1.112 6.616 5.818-3.124zM32.2954 7.75c-9.719 0-17.625 7.907-17.625 17.625S22.5764 43 32.2954 43c9.718 0 17.625-7.907 17.625-17.625S42.0134 7.75 32.2954 7.75zm0 38c-11.235 0-20.375-9.141-20.375-20.375C11.9204 14.14 21.0604 5 32.2954 5c11.234 0 20.375 9.14 20.375 20.375 0 11.234-9.141 20.375-20.375 20.375zm-.0122 2.2495c12.476 0 22.625-10.149 22.625-22.625 0-12.475-10.149-22.625-22.625-22.625s-22.625 10.15-22.625 22.625c0 12.476 10.149 22.625 22.625 22.625zm20.452-7.626l11.856 32.539-13.027-4.891-6.678 12.09-9.683-26.572 2.348-.853 7.803 21.414 5.066-9.174 9.966 3.742-9.496-26.065c-4.639 5.005-11.262 8.146-18.607 8.146-7.336 0-13.952-3.133-18.589-8.127l-9.49 26.046 9.966-3.742 5.067 9.174 7.802-21.414 2.348.853-9.682 26.572-6.678-12.09-13.027 4.891 11.848-32.517c-3.102-4.209-4.94-9.403-4.94-15.021 0-13.991 11.383-25.375 25.375-25.375s25.375 11.384 25.375 25.375c0 5.608-1.832 10.794-4.923 14.999z" fill="currentColor" fill-rule="evenodd"></path></svg>